<?xml version="1.0" encoding="UTF-8" standalone="no"?>
<svg
   xmlns:dc="http://purl.org/dc/elements/1.1/"
   xmlns:cc="http://creativecommons.org/ns#"
   xmlns:rdf="http://www.w3.org/1999/02/22-rdf-syntax-ns#"
   xmlns:svg="http://www.w3.org/2000/svg"
   xmlns="http://www.w3.org/2000/svg"
   xmlns:sodipodi="http://sodipodi.sourceforge.net/DTD/sodipodi-0.dtd"
   xmlns:inkscape="http://www.inkscape.org/namespaces/inkscape"
   viewBox="0.0 0.0 348.0 348.0"
   fill="none"
   version="1.1"
   id="svg26"
   sodipodi:docname="Cryptic Cycle.svg"
   inkscape:version="0.92.4 (5da689c313, 2019-01-14)">
  <metadata
     id="metadata32">
    <rdf:RDF>
      <cc:Work
         rdf:about="">
        <dc:format>image/svg+xml</dc:format>
        <dc:type
           rdf:resource="http://purl.org/dc/dcmitype/StillImage" />
        <dc:title></dc:title>
      </cc:Work>
    </rdf:RDF>
  </metadata>
  <defs
     id="defs30" />
  <sodipodi:namedview
     pagecolor="#ffffff"
     bordercolor="#666666"
     borderopacity="1"
     objecttolerance="10"
     gridtolerance="10"
     guidetolerance="10"
     inkscape:pageopacity="0"
     inkscape:pageshadow="2"
     inkscape:window-width="1366"
     inkscape:window-height="705"
     id="namedview28"
     showgrid="false"
     inkscape:zoom="1.1236496"
     inkscape:cx="158.89693"
     inkscape:cy="156.33343"
     inkscape:window-x="-8"
     inkscape:window-y="-8"
     inkscape:window-maximized="1"
     inkscape:current-layer="svg26" />
  <path
     d="M5.079 5.776h336.913v337.67H5.08z"
     stroke-width="2"
     stroke="#000"
     id="path22" />
  <path
     d="M282.734 40.554c0-8.376 6.966-15.165 15.56-15.165 4.126 0 8.084 1.597 11.001 4.441 2.918 2.844 4.558 6.702 4.558 10.724 0 8.376-6.966 15.165-15.56 15.165-8.593 0-15.559-6.79-15.559-15.165z"
     stroke-width="2"
     stroke="#000"
     id="path24" />
  <rect
     style="fill:#000000;fill-opacity:1;stroke:#000000;stroke-width:2;stroke-miterlimit:4;stroke-dasharray:none;stroke-opacity:1"
     id="rect916"
     width="303.94937"
     height="36.499096"
     x="20.766727"
     y="145.99638" />
  <g
     id="g1057"
     transform="translate(-6)">
    <path
       sodipodi:nodetypes="cccccccc"
       inkscape:connector-curvature="0"
       id="path1045"
       d="M 26.478629,42.792768 47.392622,27.663496 68.306615,42.792768 V 84.62075 h -43.6079 V 42.792768 h 0.889957 z"
       style="fill:none;stroke:#000000;stroke-width:1px;stroke-linecap:butt;stroke-linejoin:miter;stroke-opacity:1" />
    <path
       d="m 53.166128,51.09886 2.1875,-10.390625 h 3.749999 L 56.968211,51.09886 h 4.84375 v 3.697916 h -5.651042 l -1.875,9.0625 h 7.526042 v 3.776042 h -8.255208 l -2.1875,10.286458 H 47.567169 L 49.702586,67.635318 H 39.364045 l -2.135417,10.286458 h -3.854167 l 2.135417,-10.286458 h -4.791667 v -3.776042 h 5.598959 l 1.875,-9.0625 H 30.718211 V 51.09886 h 8.203125 l 2.1875,-10.390625 h 3.854167 L 42.827586,51.09886 Z m -0.78125,3.697916 H 42.020295 l -1.927084,9.0625 h 10.416667 z"
       style="font-style:normal;font-variant:normal;font-weight:normal;font-stretch:normal;font-size:53.33333206px;line-height:1.25;font-family:'Gill Sans Nova';-inkscape-font-specification:'Gill Sans Nova';letter-spacing:0px;word-spacing:0px;fill:#000000;fill-opacity:1;stroke:none"
       id="path1051"
       inkscape:connector-curvature="0" />
  </g>
  <g
     id="g1063"
     transform="translate(29.158115,53.397429)">
    <path
       style="fill:none;stroke:#000000;stroke-width:1px;stroke-linecap:butt;stroke-linejoin:miter;stroke-opacity:1"
       d="M 26.478629,42.792768 47.392622,27.663496 68.306615,42.792768 V 84.62075 h -43.6079 V 42.792768 h 0.889957 z"
       id="path1059"
       inkscape:connector-curvature="0"
       sodipodi:nodetypes="cccccccc" />
    <path
       inkscape:connector-curvature="0"
       id="path1061"
       style="font-style:normal;font-variant:normal;font-weight:normal;font-stretch:normal;font-size:53.33333206px;line-height:1.25;font-family:'Gill Sans Nova';-inkscape-font-specification:'Gill Sans Nova';letter-spacing:0px;word-spacing:0px;fill:#000000;fill-opacity:1;stroke:none"
       d="m 53.166128,51.09886 2.1875,-10.390625 h 3.749999 L 56.968211,51.09886 h 4.84375 v 3.697916 h -5.651042 l -1.875,9.0625 h 7.526042 v 3.776042 h -8.255208 l -2.1875,10.286458 H 47.567169 L 49.702586,67.635318 H 39.364045 l -2.135417,10.286458 h -3.854167 l 2.135417,-10.286458 h -4.791667 v -3.776042 h 5.598959 l 1.875,-9.0625 H 30.718211 V 51.09886 h 8.203125 l 2.1875,-10.390625 h 3.854167 L 42.827586,51.09886 Z m -0.78125,3.697916 H 42.020295 l -1.927084,9.0625 h 10.416667 z" />
  </g>
  <g
     transform="translate(65.196572,-0.88995715)"
     id="g1105">
    <path
       style="fill:none;stroke:#000000;stroke-width:1px;stroke-linecap:butt;stroke-linejoin:miter;stroke-opacity:1"
       d="M 26.478629,42.792768 47.392622,27.663496 68.306615,42.792768 V 84.62075 h -43.6079 V 42.792768 h 0.889957 z"
       id="path1101"
       inkscape:connector-curvature="0"
       sodipodi:nodetypes="cccccccc" />
    <path
       inkscape:connector-curvature="0"
       id="path1103"
       style="font-style:normal;font-variant:normal;font-weight:normal;font-stretch:normal;font-size:53.33333206px;line-height:1.25;font-family:'Gill Sans Nova';-inkscape-font-specification:'Gill Sans Nova';letter-spacing:0px;word-spacing:0px;fill:#000000;fill-opacity:1;stroke:none"
       d="m 53.166128,51.09886 2.1875,-10.390625 h 3.749999 L 56.968211,51.09886 h 4.84375 v 3.697916 h -5.651042 l -1.875,9.0625 h 7.526042 v 3.776042 h -8.255208 l -2.1875,10.286458 H 47.567169 L 49.702586,67.635318 H 39.364045 l -2.135417,10.286458 h -3.854167 l 2.135417,-10.286458 h -4.791667 v -3.776042 h 5.598959 l 1.875,-9.0625 H 30.718211 V 51.09886 h 8.203125 l 2.1875,-10.390625 h 3.854167 L 42.827586,51.09886 Z m -0.78125,3.697916 H 42.020295 l -1.927084,9.0625 h 10.416667 z" />
  </g>
  <g
     transform="translate(100.35469,52.507472)"
     id="g1111">
    <path
       sodipodi:nodetypes="cccccccc"
       inkscape:connector-curvature="0"
       id="path1107"
       d="M 26.478629,42.792768 47.392622,27.663496 68.306615,42.792768 V 84.62075 h -43.6079 V 42.792768 h 0.889957 z"
       style="fill:none;stroke:#000000;stroke-width:1px;stroke-linecap:butt;stroke-linejoin:miter;stroke-opacity:1" />
    <path
       d="m 53.166128,51.09886 2.1875,-10.390625 h 3.749999 L 56.968211,51.09886 h 4.84375 v 3.697916 h -5.651042 l -1.875,9.0625 h 7.526042 v 3.776042 h -8.255208 l -2.1875,10.286458 H 47.567169 L 49.702586,67.635318 H 39.364045 l -2.135417,10.286458 h -3.854167 l 2.135417,-10.286458 h -4.791667 v -3.776042 h 5.598959 l 1.875,-9.0625 H 30.718211 V 51.09886 h 8.203125 l 2.1875,-10.390625 h 3.854167 L 42.827586,51.09886 Z m -0.78125,3.697916 H 42.020295 l -1.927084,9.0625 h 10.416667 z"
       style="font-style:normal;font-variant:normal;font-weight:normal;font-stretch:normal;font-size:53.33333206px;line-height:1.25;font-family:'Gill Sans Nova';-inkscape-font-specification:'Gill Sans Nova';letter-spacing:0px;word-spacing:0px;fill:#000000;fill-opacity:1;stroke:none"
       id="path1109"
       inkscape:connector-curvature="0" />
  </g>
  <g
     transform="translate(137.23081,-1.3488109)"
     id="g1117">
    <path
       style="fill:none;stroke:#000000;stroke-width:1px;stroke-linecap:butt;stroke-linejoin:miter;stroke-opacity:1"
       d="M 26.478629,42.792768 47.392622,27.663496 68.306615,42.792768 V 84.62075 h -43.6079 V 42.792768 h 0.889957 z"
       id="path1113"
       inkscape:connector-curvature="0"
       sodipodi:nodetypes="cccccccc" />
    <path
       inkscape:connector-curvature="0"
       id="path1115"
       style="font-style:normal;font-variant:normal;font-weight:normal;font-stretch:normal;font-size:53.33333206px;line-height:1.25;font-family:'Gill Sans Nova';-inkscape-font-specification:'Gill Sans Nova';letter-spacing:0px;word-spacing:0px;fill:#000000;fill-opacity:1;stroke:none"
       d="m 53.166128,51.09886 2.1875,-10.390625 h 3.749999 L 56.968211,51.09886 h 4.84375 v 3.697916 h -5.651042 l -1.875,9.0625 h 7.526042 v 3.776042 h -8.255208 l -2.1875,10.286458 H 47.567169 L 49.702586,67.635318 H 39.364045 l -2.135417,10.286458 h -3.854167 l 2.135417,-10.286458 h -4.791667 v -3.776042 h 5.598959 l 1.875,-9.0625 H 30.718211 V 51.09886 h 8.203125 l 2.1875,-10.390625 h 3.854167 L 42.827586,51.09886 Z m -0.78125,3.697916 H 42.020295 l -1.927084,9.0625 h 10.416667 z" />
  </g>
  <g
     transform="translate(172.38893,52.048618)"
     id="g1123">
    <path
       sodipodi:nodetypes="cccccccc"
       inkscape:connector-curvature="0"
       id="path1119"
       d="M 26.478629,42.792768 47.392622,27.663496 68.306615,42.792768 V 84.62075 h -43.6079 V 42.792768 h 0.889957 z"
       style="fill:none;stroke:#000000;stroke-width:1px;stroke-linecap:butt;stroke-linejoin:miter;stroke-opacity:1" />
    <path
       d="m 53.166128,51.09886 2.1875,-10.390625 h 3.749999 L 56.968211,51.09886 h 4.84375 v 3.697916 h -5.651042 l -1.875,9.0625 h 7.526042 v 3.776042 h -8.255208 l -2.1875,10.286458 H 47.567169 L 49.702586,67.635318 H 39.364045 l -2.135417,10.286458 h -3.854167 l 2.135417,-10.286458 h -4.791667 v -3.776042 h 5.598959 l 1.875,-9.0625 H 30.718211 V 51.09886 h 8.203125 l 2.1875,-10.390625 h 3.854167 L 42.827586,51.09886 Z m -0.78125,3.697916 H 42.020295 l -1.927084,9.0625 h 10.416667 z"
       style="font-style:normal;font-variant:normal;font-weight:normal;font-stretch:normal;font-size:53.33333206px;line-height:1.25;font-family:'Gill Sans Nova';-inkscape-font-specification:'Gill Sans Nova';letter-spacing:0px;word-spacing:0px;fill:#000000;fill-opacity:1;stroke:none"
       id="path1121"
       inkscape:connector-curvature="0" />
  </g>
  <g
     id="g1129"
     transform="translate(208.42738,-2.238768)">
    <path
       sodipodi:nodetypes="cccccccc"
       inkscape:connector-curvature="0"
       id="path1125"
       d="M 26.478629,42.792768 47.392622,27.663496 68.306615,42.792768 V 84.62075 h -43.6079 V 42.792768 h 0.889957 z"
       style="fill:none;stroke:#000000;stroke-width:1px;stroke-linecap:butt;stroke-linejoin:miter;stroke-opacity:1" />
    <path
       d="m 53.166128,51.09886 2.1875,-10.390625 h 3.749999 L 56.968211,51.09886 h 4.84375 v 3.697916 h -5.651042 l -1.875,9.0625 h 7.526042 v 3.776042 h -8.255208 l -2.1875,10.286458 H 47.567169 L 49.702586,67.635318 H 39.364045 l -2.135417,10.286458 h -3.854167 l 2.135417,-10.286458 h -4.791667 v -3.776042 h 5.598959 l 1.875,-9.0625 H 30.718211 V 51.09886 h 8.203125 l 2.1875,-10.390625 h 3.854167 L 42.827586,51.09886 Z m -0.78125,3.697916 H 42.020295 l -1.927084,9.0625 h 10.416667 z"
       style="font-style:normal;font-variant:normal;font-weight:normal;font-stretch:normal;font-size:53.33333206px;line-height:1.25;font-family:'Gill Sans Nova';-inkscape-font-specification:'Gill Sans Nova';letter-spacing:0px;word-spacing:0px;fill:#000000;fill-opacity:1;stroke:none"
       id="path1127"
       inkscape:connector-curvature="0" />
  </g>
  <g
     id="g1135"
     transform="translate(243.5855,51.158661)">
    <path
       style="fill:none;stroke:#000000;stroke-width:1px;stroke-linecap:butt;stroke-linejoin:miter;stroke-opacity:1"
       d="M 26.478629,42.792768 47.392622,27.663496 68.306615,42.792768 V 84.62075 h -43.6079 V 42.792768 h 0.889957 z"
       id="path1131"
       inkscape:connector-curvature="0"
       sodipodi:nodetypes="cccccccc" />
    <path
       inkscape:connector-curvature="0"
       id="path1133"
       style="font-style:normal;font-variant:normal;font-weight:normal;font-stretch:normal;font-size:53.33333206px;line-height:1.25;font-family:'Gill Sans Nova';-inkscape-font-specification:'Gill Sans Nova';letter-spacing:0px;word-spacing:0px;fill:#000000;fill-opacity:1;stroke:none"
       d="m 53.166128,51.09886 2.1875,-10.390625 h 3.749999 L 56.968211,51.09886 h 4.84375 v 3.697916 h -5.651042 l -1.875,9.0625 h 7.526042 v 3.776042 h -8.255208 l -2.1875,10.286458 H 47.567169 L 49.702586,67.635318 H 39.364045 l -2.135417,10.286458 h -3.854167 l 2.135417,-10.286458 h -4.791667 v -3.776042 h 5.598959 l 1.875,-9.0625 H 30.718211 V 51.09886 h 8.203125 l 2.1875,-10.390625 h 3.854167 L 42.827586,51.09886 Z m -0.78125,3.697916 H 42.020295 l -1.927084,9.0625 h 10.416667 z" />
  </g>
  <g
     id="g1149"
     transform="matrix(1.0664683,0,0,1.0664683,-6.776722,-27.592598)">
    <rect
       y="216.28635"
       x="29.368586"
       height="23.138885"
       width="23.138885"
       id="rect1137"
       style="fill:none;fill-opacity:1;stroke:#000000;stroke-width:4;stroke-miterlimit:4;stroke-dasharray:none;stroke-opacity:1" />
    <g
       id="text1141"
       style="font-style:normal;font-variant:normal;font-weight:normal;font-stretch:normal;font-size:21.33333397px;line-height:1.25;font-family:Impact;-inkscape-font-specification:Impact;letter-spacing:0px;word-spacing:0px;fill:#000000;fill-opacity:1;stroke:none"
       aria-label="#">
      <path
         id="path1143"
         d="m 34.643158,224.14344 h 3.208333 l 0.875,-3.98958 h 1.96875 l -0.875,3.98958 h 3.697917 l 0.854167,-3.98958 h 1.96875 l -0.854167,3.98958 h 1.770834 v 1.97917 h -2.145834 l -0.65625,3.14583 h 2.802084 v 1.96875 h -3.177084 l -0.854166,3.95834 h -1.979167 l 0.864583,-3.95834 h -3.739583 l -0.8125,3.95834 h -1.989584 l 0.84375,-3.95834 h -1.770833 v -1.96875 h 2.177083 l 0.65625,-3.14583 h -2.833333 z m 4.802083,1.97917 -0.65625,3.13542 h 3.708334 l 0.645833,-3.13542 z"
         inkscape:connector-curvature="0" />
    </g>
  </g>
  <g
     transform="matrix(1.0664683,0,0,1.0664683,22.967675,-27.592598)"
     id="g1157">
    <rect
       style="fill:none;fill-opacity:1;stroke:#000000;stroke-width:4;stroke-miterlimit:4;stroke-dasharray:none;stroke-opacity:1"
       id="rect1151"
       width="23.138885"
       height="23.138885"
       x="29.368586"
       y="216.28635" />
    <g
       aria-label="#"
       style="font-style:normal;font-variant:normal;font-weight:normal;font-stretch:normal;font-size:21.33333397px;line-height:1.25;font-family:Impact;-inkscape-font-specification:Impact;letter-spacing:0px;word-spacing:0px;fill:#000000;fill-opacity:1;stroke:none"
       id="g1155">
      <path
         inkscape:connector-curvature="0"
         d="m 34.643158,224.14344 h 3.208333 l 0.875,-3.98958 h 1.96875 l -0.875,3.98958 h 3.697917 l 0.854167,-3.98958 h 1.96875 l -0.854167,3.98958 h 1.770834 v 1.97917 h -2.145834 l -0.65625,3.14583 h 2.802084 v 1.96875 h -3.177084 l -0.854166,3.95834 h -1.979167 l 0.864583,-3.95834 h -3.739583 l -0.8125,3.95834 h -1.989584 l 0.84375,-3.95834 h -1.770833 v -1.96875 h 2.177083 l 0.65625,-3.14583 h -2.833333 z m 4.802083,1.97917 -0.65625,3.13542 h 3.708334 l 0.645833,-3.13542 z"
         id="path1153" />
    </g>
  </g>
  <g
     transform="matrix(1.0664683,0,0,1.0664683,52.70283,-27.396472)"
     id="g1165">
    <rect
       style="fill:none;fill-opacity:1;stroke:#000000;stroke-width:4;stroke-miterlimit:4;stroke-dasharray:none;stroke-opacity:1"
       id="rect1159"
       width="23.138885"
       height="23.138885"
       x="29.368586"
       y="216.28635" />
    <g
       aria-label="#"
       style="font-style:normal;font-variant:normal;font-weight:normal;font-stretch:normal;font-size:21.33333397px;line-height:1.25;font-family:Impact;-inkscape-font-specification:Impact;letter-spacing:0px;word-spacing:0px;fill:#000000;fill-opacity:1;stroke:none"
       id="g1163">
      <path
         inkscape:connector-curvature="0"
         d="m 34.643158,224.14344 h 3.208333 l 0.875,-3.98958 h 1.96875 l -0.875,3.98958 h 3.697917 l 0.854167,-3.98958 h 1.96875 l -0.854167,3.98958 h 1.770834 v 1.97917 h -2.145834 l -0.65625,3.14583 h 2.802084 v 1.96875 h -3.177084 l -0.854166,3.95834 h -1.979167 l 0.864583,-3.95834 h -3.739583 l -0.8125,3.95834 h -1.989584 l 0.84375,-3.95834 h -1.770833 v -1.96875 h 2.177083 l 0.65625,-3.14583 h -2.833333 z m 4.802083,1.97917 -0.65625,3.13542 h 3.708334 l 0.645833,-3.13542 z"
         id="path1161" />
    </g>
  </g>
  <g
     id="g1173"
     transform="matrix(1.0664683,0,0,1.0664683,82.447228,-27.396472)">
    <rect
       y="216.28635"
       x="29.368586"
       height="23.138885"
       width="23.138885"
       id="rect1167"
       style="fill:none;fill-opacity:1;stroke:#000000;stroke-width:4;stroke-miterlimit:4;stroke-dasharray:none;stroke-opacity:1" />
    <g
       id="g1171"
       style="font-style:normal;font-variant:normal;font-weight:normal;font-stretch:normal;font-size:21.33333397px;line-height:1.25;font-family:Impact;-inkscape-font-specification:Impact;letter-spacing:0px;word-spacing:0px;fill:#000000;fill-opacity:1;stroke:none"
       aria-label="#">
      <path
         id="path1169"
         d="m 34.643158,224.14344 h 3.208333 l 0.875,-3.98958 h 1.96875 l -0.875,3.98958 h 3.697917 l 0.854167,-3.98958 h 1.96875 l -0.854167,3.98958 h 1.770834 v 1.97917 h -2.145834 l -0.65625,3.14583 h 2.802084 v 1.96875 h -3.177084 l -0.854166,3.95834 h -1.979167 l 0.864583,-3.95834 h -3.739583 l -0.8125,3.95834 h -1.989584 l 0.84375,-3.95834 h -1.770833 v -1.96875 h 2.177083 l 0.65625,-3.14583 h -2.833333 z m 4.802083,1.97917 -0.65625,3.13542 h 3.708334 l 0.645833,-3.13542 z"
         inkscape:connector-curvature="0" />
    </g>
  </g>
  <g
     transform="matrix(1.0664683,0,0,1.0664683,112.47091,-27.396472)"
     id="g1189">
    <rect
       style="fill:none;fill-opacity:1;stroke:#000000;stroke-width:4;stroke-miterlimit:4;stroke-dasharray:none;stroke-opacity:1"
       id="rect1183"
       width="23.138885"
       height="23.138885"
       x="29.368586"
       y="216.28635" />
    <g
       aria-label="#"
       style="font-style:normal;font-variant:normal;font-weight:normal;font-stretch:normal;font-size:21.33333397px;line-height:1.25;font-family:Impact;-inkscape-font-specification:Impact;letter-spacing:0px;word-spacing:0px;fill:#000000;fill-opacity:1;stroke:none"
       id="g1187">
      <path
         inkscape:connector-curvature="0"
         d="m 34.643158,224.14344 h 3.208333 l 0.875,-3.98958 h 1.96875 l -0.875,3.98958 h 3.697917 l 0.854167,-3.98958 h 1.96875 l -0.854167,3.98958 h 1.770834 v 1.97917 h -2.145834 l -0.65625,3.14583 h 2.802084 v 1.96875 h -3.177084 l -0.854166,3.95834 h -1.979167 l 0.864583,-3.95834 h -3.739583 l -0.8125,3.95834 h -1.989584 l 0.84375,-3.95834 h -1.770833 v -1.96875 h 2.177083 l 0.65625,-3.14583 h -2.833333 z m 4.802083,1.97917 -0.65625,3.13542 h 3.708334 l 0.645833,-3.13542 z"
         id="path1185" />
    </g>
  </g>
  <g
     transform="matrix(1.0664683,0,0,1.0664683,142.14827,-27.396472)"
     id="g1197">
    <rect
       style="fill:none;fill-opacity:1;stroke:#000000;stroke-width:4;stroke-miterlimit:4;stroke-dasharray:none;stroke-opacity:1"
       id="rect1191"
       width="23.138885"
       height="23.138885"
       x="29.368586"
       y="216.28635" />
    <g
       aria-label="#"
       style="font-style:normal;font-variant:normal;font-weight:normal;font-stretch:normal;font-size:21.33333397px;line-height:1.25;font-family:Impact;-inkscape-font-specification:Impact;letter-spacing:0px;word-spacing:0px;fill:#000000;fill-opacity:1;stroke:none"
       id="g1195">
      <path
         inkscape:connector-curvature="0"
         d="m 34.643158,224.14344 h 3.208333 l 0.875,-3.98958 h 1.96875 l -0.875,3.98958 h 3.697917 l 0.854167,-3.98958 h 1.96875 l -0.854167,3.98958 h 1.770834 v 1.97917 h -2.145834 l -0.65625,3.14583 h 2.802084 v 1.96875 h -3.177084 l -0.854166,3.95834 h -1.979167 l 0.864583,-3.95834 h -3.739583 l -0.8125,3.95834 h -1.989584 l 0.84375,-3.95834 h -1.770833 v -1.96875 h 2.177083 l 0.65625,-3.14583 h -2.833333 z m 4.802083,1.97917 -0.65625,3.13542 h 3.708334 l 0.645833,-3.13542 z"
         id="path1193" />
    </g>
  </g>
  <g
     id="g1205"
     transform="matrix(1.0664683,0,0,1.0664683,171.89266,-27.396472)">
    <rect
       y="216.28635"
       x="29.368586"
       height="23.138885"
       width="23.138885"
       id="rect1199"
       style="fill:none;fill-opacity:1;stroke:#000000;stroke-width:4;stroke-miterlimit:4;stroke-dasharray:none;stroke-opacity:1" />
    <g
       id="g1203"
       style="font-style:normal;font-variant:normal;font-weight:normal;font-stretch:normal;font-size:21.33333397px;line-height:1.25;font-family:Impact;-inkscape-font-specification:Impact;letter-spacing:0px;word-spacing:0px;fill:#000000;fill-opacity:1;stroke:none"
       aria-label="#">
      <path
         id="path1201"
         d="m 34.643158,224.14344 h 3.208333 l 0.875,-3.98958 h 1.96875 l -0.875,3.98958 h 3.697917 l 0.854167,-3.98958 h 1.96875 l -0.854167,3.98958 h 1.770834 v 1.97917 h -2.145834 l -0.65625,3.14583 h 2.802084 v 1.96875 h -3.177084 l -0.854166,3.95834 h -1.979167 l 0.864583,-3.95834 h -3.739583 l -0.8125,3.95834 h -1.989584 l 0.84375,-3.95834 h -1.770833 v -1.96875 h 2.177083 l 0.65625,-3.14583 h -2.833333 z m 4.802083,1.97917 -0.65625,3.13542 h 3.708334 l 0.645833,-3.13542 z"
         inkscape:connector-curvature="0" />
    </g>
  </g>
  <g
     id="g1213"
     transform="matrix(1.0664683,0,0,1.0664683,201.62782,-27.200346)">
    <rect
       y="216.28635"
       x="29.368586"
       height="23.138885"
       width="23.138885"
       id="rect1207"
       style="fill:none;fill-opacity:1;stroke:#000000;stroke-width:4;stroke-miterlimit:4;stroke-dasharray:none;stroke-opacity:1" />
    <g
       id="g1211"
       style="font-style:normal;font-variant:normal;font-weight:normal;font-stretch:normal;font-size:21.33333397px;line-height:1.25;font-family:Impact;-inkscape-font-specification:Impact;letter-spacing:0px;word-spacing:0px;fill:#000000;fill-opacity:1;stroke:none"
       aria-label="#">
      <path
         id="path1209"
         d="m 34.643158,224.14344 h 3.208333 l 0.875,-3.98958 h 1.96875 l -0.875,3.98958 h 3.697917 l 0.854167,-3.98958 h 1.96875 l -0.854167,3.98958 h 1.770834 v 1.97917 h -2.145834 l -0.65625,3.14583 h 2.802084 v 1.96875 h -3.177084 l -0.854166,3.95834 h -1.979167 l 0.864583,-3.95834 h -3.739583 l -0.8125,3.95834 h -1.989584 l 0.84375,-3.95834 h -1.770833 v -1.96875 h 2.177083 l 0.65625,-3.14583 h -2.833333 z m 4.802083,1.97917 -0.65625,3.13542 h 3.708334 l 0.645833,-3.13542 z"
         inkscape:connector-curvature="0" />
    </g>
  </g>
  <g
     transform="matrix(1.0664683,0,0,1.0664683,231.37222,-27.200346)"
     id="g1221">
    <rect
       style="fill:none;fill-opacity:1;stroke:#000000;stroke-width:4;stroke-miterlimit:4;stroke-dasharray:none;stroke-opacity:1"
       id="rect1215"
       width="23.138885"
       height="23.138885"
       x="29.368586"
       y="216.28635" />
    <g
       aria-label="#"
       style="font-style:normal;font-variant:normal;font-weight:normal;font-stretch:normal;font-size:21.33333397px;line-height:1.25;font-family:Impact;-inkscape-font-specification:Impact;letter-spacing:0px;word-spacing:0px;fill:#000000;fill-opacity:1;stroke:none"
       id="g1219">
      <path
         inkscape:connector-curvature="0"
         d="m 34.643158,224.14344 h 3.208333 l 0.875,-3.98958 h 1.96875 l -0.875,3.98958 h 3.697917 l 0.854167,-3.98958 h 1.96875 l -0.854167,3.98958 h 1.770834 v 1.97917 h -2.145834 l -0.65625,3.14583 h 2.802084 v 1.96875 h -3.177084 l -0.854166,3.95834 h -1.979167 l 0.864583,-3.95834 h -3.739583 l -0.8125,3.95834 h -1.989584 l 0.84375,-3.95834 h -1.770833 v -1.96875 h 2.177083 l 0.65625,-3.14583 h -2.833333 z m 4.802083,1.97917 -0.65625,3.13542 h 3.708334 l 0.645833,-3.13542 z"
         id="path1217" />
    </g>
  </g>
  <g
     id="g1229"
     transform="matrix(1.0664683,0,0,1.0664683,261.3959,-27.200346)">
    <rect
       y="216.28635"
       x="29.368586"
       height="23.138885"
       width="23.138885"
       id="rect1223"
       style="fill:none;fill-opacity:1;stroke:#000000;stroke-width:4;stroke-miterlimit:4;stroke-dasharray:none;stroke-opacity:1" />
    <g
       id="g1227"
       style="font-style:normal;font-variant:normal;font-weight:normal;font-stretch:normal;font-size:21.33333397px;line-height:1.25;font-family:Impact;-inkscape-font-specification:Impact;letter-spacing:0px;word-spacing:0px;fill:#000000;fill-opacity:1;stroke:none"
       aria-label="#">
      <path
         id="path1225"
         d="m 34.643158,224.14344 h 3.208333 l 0.875,-3.98958 h 1.96875 l -0.875,3.98958 h 3.697917 l 0.854167,-3.98958 h 1.96875 l -0.854167,3.98958 h 1.770834 v 1.97917 h -2.145834 l -0.65625,3.14583 h 2.802084 v 1.96875 h -3.177084 l -0.854166,3.95834 h -1.979167 l 0.864583,-3.95834 h -3.739583 l -0.8125,3.95834 h -1.989584 l 0.84375,-3.95834 h -1.770833 v -1.96875 h 2.177083 l 0.65625,-3.14583 h -2.833333 z m 4.802083,1.97917 -0.65625,3.13542 h 3.708334 l 0.645833,-3.13542 z"
         inkscape:connector-curvature="0" />
    </g>
  </g>
  <g
     transform="matrix(1.0664683,0,0,1.0664683,6.5726353,2.6659452)"
     id="g1237">
    <rect
       style="fill:none;fill-opacity:1;stroke:#000000;stroke-width:4;stroke-miterlimit:4;stroke-dasharray:none;stroke-opacity:1"
       id="rect1231"
       width="23.138885"
       height="23.138885"
       x="29.368586"
       y="216.28635" />
    <g
       aria-label="#"
       style="font-style:normal;font-variant:normal;font-weight:normal;font-stretch:normal;font-size:21.33333397px;line-height:1.25;font-family:Impact;-inkscape-font-specification:Impact;letter-spacing:0px;word-spacing:0px;fill:#000000;fill-opacity:1;stroke:none"
       id="g1235">
      <path
         inkscape:connector-curvature="0"
         d="m 34.643158,224.14344 h 3.208333 l 0.875,-3.98958 h 1.96875 l -0.875,3.98958 h 3.697917 l 0.854167,-3.98958 h 1.96875 l -0.854167,3.98958 h 1.770834 v 1.97917 h -2.145834 l -0.65625,3.14583 h 2.802084 v 1.96875 h -3.177084 l -0.854166,3.95834 h -1.979167 l 0.864583,-3.95834 h -3.739583 l -0.8125,3.95834 h -1.989584 l 0.84375,-3.95834 h -1.770833 v -1.96875 h 2.177083 l 0.65625,-3.14583 h -2.833333 z m 4.802083,1.97917 -0.65625,3.13542 h 3.708334 l 0.645833,-3.13542 z"
         id="path1233" />
    </g>
  </g>
  <g
     id="g1245"
     transform="matrix(1.0664683,0,0,1.0664683,36.317032,2.6659452)">
    <rect
       y="216.28635"
       x="29.368586"
       height="23.138885"
       width="23.138885"
       id="rect1239"
       style="fill:none;fill-opacity:1;stroke:#000000;stroke-width:4;stroke-miterlimit:4;stroke-dasharray:none;stroke-opacity:1" />
    <g
       id="g1243"
       style="font-style:normal;font-variant:normal;font-weight:normal;font-stretch:normal;font-size:21.33333397px;line-height:1.25;font-family:Impact;-inkscape-font-specification:Impact;letter-spacing:0px;word-spacing:0px;fill:#000000;fill-opacity:1;stroke:none"
       aria-label="#">
      <path
         id="path1241"
         d="m 34.643158,224.14344 h 3.208333 l 0.875,-3.98958 h 1.96875 l -0.875,3.98958 h 3.697917 l 0.854167,-3.98958 h 1.96875 l -0.854167,3.98958 h 1.770834 v 1.97917 h -2.145834 l -0.65625,3.14583 h 2.802084 v 1.96875 h -3.177084 l -0.854166,3.95834 h -1.979167 l 0.864583,-3.95834 h -3.739583 l -0.8125,3.95834 h -1.989584 l 0.84375,-3.95834 h -1.770833 v -1.96875 h 2.177083 l 0.65625,-3.14583 h -2.833333 z m 4.802083,1.97917 -0.65625,3.13542 h 3.708334 l 0.645833,-3.13542 z"
         inkscape:connector-curvature="0" />
    </g>
  </g>
  <g
     id="g1253"
     transform="matrix(1.0664683,0,0,1.0664683,66.052187,2.8620712)">
    <rect
       y="216.28635"
       x="29.368586"
       height="23.138885"
       width="23.138885"
       id="rect1247"
       style="fill:none;fill-opacity:1;stroke:#000000;stroke-width:4;stroke-miterlimit:4;stroke-dasharray:none;stroke-opacity:1" />
    <g
       id="g1251"
       style="font-style:normal;font-variant:normal;font-weight:normal;font-stretch:normal;font-size:21.33333397px;line-height:1.25;font-family:Impact;-inkscape-font-specification:Impact;letter-spacing:0px;word-spacing:0px;fill:#000000;fill-opacity:1;stroke:none"
       aria-label="#">
      <path
         id="path1249"
         d="m 34.643158,224.14344 h 3.208333 l 0.875,-3.98958 h 1.96875 l -0.875,3.98958 h 3.697917 l 0.854167,-3.98958 h 1.96875 l -0.854167,3.98958 h 1.770834 v 1.97917 h -2.145834 l -0.65625,3.14583 h 2.802084 v 1.96875 h -3.177084 l -0.854166,3.95834 h -1.979167 l 0.864583,-3.95834 h -3.739583 l -0.8125,3.95834 h -1.989584 l 0.84375,-3.95834 h -1.770833 v -1.96875 h 2.177083 l 0.65625,-3.14583 h -2.833333 z m 4.802083,1.97917 -0.65625,3.13542 h 3.708334 l 0.645833,-3.13542 z"
         inkscape:connector-curvature="0" />
    </g>
  </g>
  <g
     transform="matrix(1.0664683,0,0,1.0664683,95.796585,2.8620712)"
     id="g1261">
    <rect
       style="fill:none;fill-opacity:1;stroke:#000000;stroke-width:4;stroke-miterlimit:4;stroke-dasharray:none;stroke-opacity:1"
       id="rect1255"
       width="23.138885"
       height="23.138885"
       x="29.368586"
       y="216.28635" />
    <g
       aria-label="#"
       style="font-style:normal;font-variant:normal;font-weight:normal;font-stretch:normal;font-size:21.33333397px;line-height:1.25;font-family:Impact;-inkscape-font-specification:Impact;letter-spacing:0px;word-spacing:0px;fill:#000000;fill-opacity:1;stroke:none"
       id="g1259">
      <path
         inkscape:connector-curvature="0"
         d="m 34.643158,224.14344 h 3.208333 l 0.875,-3.98958 h 1.96875 l -0.875,3.98958 h 3.697917 l 0.854167,-3.98958 h 1.96875 l -0.854167,3.98958 h 1.770834 v 1.97917 h -2.145834 l -0.65625,3.14583 h 2.802084 v 1.96875 h -3.177084 l -0.854166,3.95834 h -1.979167 l 0.864583,-3.95834 h -3.739583 l -0.8125,3.95834 h -1.989584 l 0.84375,-3.95834 h -1.770833 v -1.96875 h 2.177083 l 0.65625,-3.14583 h -2.833333 z m 4.802083,1.97917 -0.65625,3.13542 h 3.708334 l 0.645833,-3.13542 z"
         id="path1257" />
    </g>
  </g>
  <g
     id="g1269"
     transform="matrix(1.0664683,0,0,1.0664683,125.82027,2.8620712)">
    <rect
       y="216.28635"
       x="29.368586"
       height="23.138885"
       width="23.138885"
       id="rect1263"
       style="fill:none;fill-opacity:1;stroke:#000000;stroke-width:4;stroke-miterlimit:4;stroke-dasharray:none;stroke-opacity:1" />
    <g
       id="g1267"
       style="font-style:normal;font-variant:normal;font-weight:normal;font-stretch:normal;font-size:21.33333397px;line-height:1.25;font-family:Impact;-inkscape-font-specification:Impact;letter-spacing:0px;word-spacing:0px;fill:#000000;fill-opacity:1;stroke:none"
       aria-label="#">
      <path
         id="path1265"
         d="m 34.643158,224.14344 h 3.208333 l 0.875,-3.98958 h 1.96875 l -0.875,3.98958 h 3.697917 l 0.854167,-3.98958 h 1.96875 l -0.854167,3.98958 h 1.770834 v 1.97917 h -2.145834 l -0.65625,3.14583 h 2.802084 v 1.96875 h -3.177084 l -0.854166,3.95834 h -1.979167 l 0.864583,-3.95834 h -3.739583 l -0.8125,3.95834 h -1.989584 l 0.84375,-3.95834 h -1.770833 v -1.96875 h 2.177083 l 0.65625,-3.14583 h -2.833333 z m 4.802083,1.97917 -0.65625,3.13542 h 3.708334 l 0.645833,-3.13542 z"
         inkscape:connector-curvature="0" />
    </g>
  </g>
  <g
     id="g1277"
     transform="matrix(1.0664683,0,0,1.0664683,155.49763,2.8620712)">
    <rect
       y="216.28635"
       x="29.368586"
       height="23.138885"
       width="23.138885"
       id="rect1271"
       style="fill:none;fill-opacity:1;stroke:#000000;stroke-width:4;stroke-miterlimit:4;stroke-dasharray:none;stroke-opacity:1" />
    <g
       id="g1275"
       style="font-style:normal;font-variant:normal;font-weight:normal;font-stretch:normal;font-size:21.33333397px;line-height:1.25;font-family:Impact;-inkscape-font-specification:Impact;letter-spacing:0px;word-spacing:0px;fill:#000000;fill-opacity:1;stroke:none"
       aria-label="#">
      <path
         id="path1273"
         d="m 34.643158,224.14344 h 3.208333 l 0.875,-3.98958 h 1.96875 l -0.875,3.98958 h 3.697917 l 0.854167,-3.98958 h 1.96875 l -0.854167,3.98958 h 1.770834 v 1.97917 h -2.145834 l -0.65625,3.14583 h 2.802084 v 1.96875 h -3.177084 l -0.854166,3.95834 h -1.979167 l 0.864583,-3.95834 h -3.739583 l -0.8125,3.95834 h -1.989584 l 0.84375,-3.95834 h -1.770833 v -1.96875 h 2.177083 l 0.65625,-3.14583 h -2.833333 z m 4.802083,1.97917 -0.65625,3.13542 h 3.708334 l 0.645833,-3.13542 z"
         inkscape:connector-curvature="0" />
    </g>
  </g>
  <g
     transform="matrix(1.0664683,0,0,1.0664683,185.24202,2.8620712)"
     id="g1285">
    <rect
       style="fill:none;fill-opacity:1;stroke:#000000;stroke-width:4;stroke-miterlimit:4;stroke-dasharray:none;stroke-opacity:1"
       id="rect1279"
       width="23.138885"
       height="23.138885"
       x="29.368586"
       y="216.28635" />
    <g
       aria-label="#"
       style="font-style:normal;font-variant:normal;font-weight:normal;font-stretch:normal;font-size:21.33333397px;line-height:1.25;font-family:Impact;-inkscape-font-specification:Impact;letter-spacing:0px;word-spacing:0px;fill:#000000;fill-opacity:1;stroke:none"
       id="g1283">
      <path
         inkscape:connector-curvature="0"
         d="m 34.643158,224.14344 h 3.208333 l 0.875,-3.98958 h 1.96875 l -0.875,3.98958 h 3.697917 l 0.854167,-3.98958 h 1.96875 l -0.854167,3.98958 h 1.770834 v 1.97917 h -2.145834 l -0.65625,3.14583 h 2.802084 v 1.96875 h -3.177084 l -0.854166,3.95834 h -1.979167 l 0.864583,-3.95834 h -3.739583 l -0.8125,3.95834 h -1.989584 l 0.84375,-3.95834 h -1.770833 v -1.96875 h 2.177083 l 0.65625,-3.14583 h -2.833333 z m 4.802083,1.97917 -0.65625,3.13542 h 3.708334 l 0.645833,-3.13542 z"
         id="path1281" />
    </g>
  </g>
  <g
     transform="matrix(1.0664683,0,0,1.0664683,214.97718,3.0581972)"
     id="g1293">
    <rect
       style="fill:none;fill-opacity:1;stroke:#000000;stroke-width:4;stroke-miterlimit:4;stroke-dasharray:none;stroke-opacity:1"
       id="rect1287"
       width="23.138885"
       height="23.138885"
       x="29.368586"
       y="216.28635" />
    <g
       aria-label="#"
       style="font-style:normal;font-variant:normal;font-weight:normal;font-stretch:normal;font-size:21.33333397px;line-height:1.25;font-family:Impact;-inkscape-font-specification:Impact;letter-spacing:0px;word-spacing:0px;fill:#000000;fill-opacity:1;stroke:none"
       id="g1291">
      <path
         inkscape:connector-curvature="0"
         d="m 34.643158,224.14344 h 3.208333 l 0.875,-3.98958 h 1.96875 l -0.875,3.98958 h 3.697917 l 0.854167,-3.98958 h 1.96875 l -0.854167,3.98958 h 1.770834 v 1.97917 h -2.145834 l -0.65625,3.14583 h 2.802084 v 1.96875 h -3.177084 l -0.854166,3.95834 h -1.979167 l 0.864583,-3.95834 h -3.739583 l -0.8125,3.95834 h -1.989584 l 0.84375,-3.95834 h -1.770833 v -1.96875 h 2.177083 l 0.65625,-3.14583 h -2.833333 z m 4.802083,1.97917 -0.65625,3.13542 h 3.708334 l 0.645833,-3.13542 z"
         id="path1289" />
    </g>
  </g>
  <g
     id="g1301"
     transform="matrix(1.0664683,0,0,1.0664683,244.72158,3.0581972)">
    <rect
       y="216.28635"
       x="29.368586"
       height="23.138885"
       width="23.138885"
       id="rect1295"
       style="fill:none;fill-opacity:1;stroke:#000000;stroke-width:4;stroke-miterlimit:4;stroke-dasharray:none;stroke-opacity:1" />
    <g
       id="g1299"
       style="font-style:normal;font-variant:normal;font-weight:normal;font-stretch:normal;font-size:21.33333397px;line-height:1.25;font-family:Impact;-inkscape-font-specification:Impact;letter-spacing:0px;word-spacing:0px;fill:#000000;fill-opacity:1;stroke:none"
       aria-label="#">
      <path
         id="path1297"
         d="m 34.643158,224.14344 h 3.208333 l 0.875,-3.98958 h 1.96875 l -0.875,3.98958 h 3.697917 l 0.854167,-3.98958 h 1.96875 l -0.854167,3.98958 h 1.770834 v 1.97917 h -2.145834 l -0.65625,3.14583 h 2.802084 v 1.96875 h -3.177084 l -0.854166,3.95834 h -1.979167 l 0.864583,-3.95834 h -3.739583 l -0.8125,3.95834 h -1.989584 l 0.84375,-3.95834 h -1.770833 v -1.96875 h 2.177083 l 0.65625,-3.14583 h -2.833333 z m 4.802083,1.97917 -0.65625,3.13542 h 3.708334 l 0.645833,-3.13542 z"
         inkscape:connector-curvature="0" />
    </g>
  </g>
  <g
     id="g1309"
     transform="matrix(1.0664683,0,0,1.0664683,22.371778,33.214391)">
    <rect
       y="216.28635"
       x="29.368586"
       height="23.138885"
       width="23.138885"
       id="rect1303"
       style="fill:none;fill-opacity:1;stroke:#000000;stroke-width:4;stroke-miterlimit:4;stroke-dasharray:none;stroke-opacity:1" />
    <g
       id="g1307"
       style="font-style:normal;font-variant:normal;font-weight:normal;font-stretch:normal;font-size:21.33333397px;line-height:1.25;font-family:Impact;-inkscape-font-specification:Impact;letter-spacing:0px;word-spacing:0px;fill:#000000;fill-opacity:1;stroke:none"
       aria-label="#">
      <path
         id="path1305"
         d="m 34.643158,224.14344 h 3.208333 l 0.875,-3.98958 h 1.96875 l -0.875,3.98958 h 3.697917 l 0.854167,-3.98958 h 1.96875 l -0.854167,3.98958 h 1.770834 v 1.97917 h -2.145834 l -0.65625,3.14583 h 2.802084 v 1.96875 h -3.177084 l -0.854166,3.95834 h -1.979167 l 0.864583,-3.95834 h -3.739583 l -0.8125,3.95834 h -1.989584 l 0.84375,-3.95834 h -1.770833 v -1.96875 h 2.177083 l 0.65625,-3.14583 h -2.833333 z m 4.802083,1.97917 -0.65625,3.13542 h 3.708334 l 0.645833,-3.13542 z"
         inkscape:connector-curvature="0" />
    </g>
  </g>
  <g
     transform="matrix(1.0664683,0,0,1.0664683,52.116175,33.214391)"
     id="g1317">
    <rect
       style="fill:none;fill-opacity:1;stroke:#000000;stroke-width:4;stroke-miterlimit:4;stroke-dasharray:none;stroke-opacity:1"
       id="rect1311"
       width="23.138885"
       height="23.138885"
       x="29.368586"
       y="216.28635" />
    <g
       aria-label="#"
       style="font-style:normal;font-variant:normal;font-weight:normal;font-stretch:normal;font-size:21.33333397px;line-height:1.25;font-family:Impact;-inkscape-font-specification:Impact;letter-spacing:0px;word-spacing:0px;fill:#000000;fill-opacity:1;stroke:none"
       id="g1315">
      <path
         inkscape:connector-curvature="0"
         d="m 34.643158,224.14344 h 3.208333 l 0.875,-3.98958 h 1.96875 l -0.875,3.98958 h 3.697917 l 0.854167,-3.98958 h 1.96875 l -0.854167,3.98958 h 1.770834 v 1.97917 h -2.145834 l -0.65625,3.14583 h 2.802084 v 1.96875 h -3.177084 l -0.854166,3.95834 h -1.979167 l 0.864583,-3.95834 h -3.739583 l -0.8125,3.95834 h -1.989584 l 0.84375,-3.95834 h -1.770833 v -1.96875 h 2.177083 l 0.65625,-3.14583 h -2.833333 z m 4.802083,1.97917 -0.65625,3.13542 h 3.708334 l 0.645833,-3.13542 z"
         id="path1313" />
    </g>
  </g>
  <g
     transform="matrix(1.0664683,0,0,1.0664683,81.85133,33.410517)"
     id="g1325">
    <rect
       style="fill:none;fill-opacity:1;stroke:#000000;stroke-width:4;stroke-miterlimit:4;stroke-dasharray:none;stroke-opacity:1"
       id="rect1319"
       width="23.138885"
       height="23.138885"
       x="29.368586"
       y="216.28635" />
    <g
       aria-label="#"
       style="font-style:normal;font-variant:normal;font-weight:normal;font-stretch:normal;font-size:21.33333397px;line-height:1.25;font-family:Impact;-inkscape-font-specification:Impact;letter-spacing:0px;word-spacing:0px;fill:#000000;fill-opacity:1;stroke:none"
       id="g1323">
      <path
         inkscape:connector-curvature="0"
         d="m 34.643158,224.14344 h 3.208333 l 0.875,-3.98958 h 1.96875 l -0.875,3.98958 h 3.697917 l 0.854167,-3.98958 h 1.96875 l -0.854167,3.98958 h 1.770834 v 1.97917 h -2.145834 l -0.65625,3.14583 h 2.802084 v 1.96875 h -3.177084 l -0.854166,3.95834 h -1.979167 l 0.864583,-3.95834 h -3.739583 l -0.8125,3.95834 h -1.989584 l 0.84375,-3.95834 h -1.770833 v -1.96875 h 2.177083 l 0.65625,-3.14583 h -2.833333 z m 4.802083,1.97917 -0.65625,3.13542 h 3.708334 l 0.645833,-3.13542 z"
         id="path1321" />
    </g>
  </g>
  <g
     id="g1333"
     transform="matrix(1.0664683,0,0,1.0664683,111.59573,33.410517)">
    <rect
       y="216.28635"
       x="29.368586"
       height="23.138885"
       width="23.138885"
       id="rect1327"
       style="fill:none;fill-opacity:1;stroke:#000000;stroke-width:4;stroke-miterlimit:4;stroke-dasharray:none;stroke-opacity:1" />
    <g
       id="g1331"
       style="font-style:normal;font-variant:normal;font-weight:normal;font-stretch:normal;font-size:21.33333397px;line-height:1.25;font-family:Impact;-inkscape-font-specification:Impact;letter-spacing:0px;word-spacing:0px;fill:#000000;fill-opacity:1;stroke:none"
       aria-label="#">
      <path
         id="path1329"
         d="m 34.643158,224.14344 h 3.208333 l 0.875,-3.98958 h 1.96875 l -0.875,3.98958 h 3.697917 l 0.854167,-3.98958 h 1.96875 l -0.854167,3.98958 h 1.770834 v 1.97917 h -2.145834 l -0.65625,3.14583 h 2.802084 v 1.96875 h -3.177084 l -0.854166,3.95834 h -1.979167 l 0.864583,-3.95834 h -3.739583 l -0.8125,3.95834 h -1.989584 l 0.84375,-3.95834 h -1.770833 v -1.96875 h 2.177083 l 0.65625,-3.14583 h -2.833333 z m 4.802083,1.97917 -0.65625,3.13542 h 3.708334 l 0.645833,-3.13542 z"
         inkscape:connector-curvature="0" />
    </g>
  </g>
  <g
     transform="matrix(1.0664683,0,0,1.0664683,141.61941,33.410517)"
     id="g1341">
    <rect
       style="fill:none;fill-opacity:1;stroke:#000000;stroke-width:4;stroke-miterlimit:4;stroke-dasharray:none;stroke-opacity:1"
       id="rect1335"
       width="23.138885"
       height="23.138885"
       x="29.368586"
       y="216.28635" />
    <g
       aria-label="#"
       style="font-style:normal;font-variant:normal;font-weight:normal;font-stretch:normal;font-size:21.33333397px;line-height:1.25;font-family:Impact;-inkscape-font-specification:Impact;letter-spacing:0px;word-spacing:0px;fill:#000000;fill-opacity:1;stroke:none"
       id="g1339">
      <path
         inkscape:connector-curvature="0"
         d="m 34.643158,224.14344 h 3.208333 l 0.875,-3.98958 h 1.96875 l -0.875,3.98958 h 3.697917 l 0.854167,-3.98958 h 1.96875 l -0.854167,3.98958 h 1.770834 v 1.97917 h -2.145834 l -0.65625,3.14583 h 2.802084 v 1.96875 h -3.177084 l -0.854166,3.95834 h -1.979167 l 0.864583,-3.95834 h -3.739583 l -0.8125,3.95834 h -1.989584 l 0.84375,-3.95834 h -1.770833 v -1.96875 h 2.177083 l 0.65625,-3.14583 h -2.833333 z m 4.802083,1.97917 -0.65625,3.13542 h 3.708334 l 0.645833,-3.13542 z"
         id="path1337" />
    </g>
  </g>
  <g
     transform="matrix(1.0664683,0,0,1.0664683,171.29677,33.410517)"
     id="g1349">
    <rect
       style="fill:none;fill-opacity:1;stroke:#000000;stroke-width:4;stroke-miterlimit:4;stroke-dasharray:none;stroke-opacity:1"
       id="rect1343"
       width="23.138885"
       height="23.138885"
       x="29.368586"
       y="216.28635" />
    <g
       aria-label="#"
       style="font-style:normal;font-variant:normal;font-weight:normal;font-stretch:normal;font-size:21.33333397px;line-height:1.25;font-family:Impact;-inkscape-font-specification:Impact;letter-spacing:0px;word-spacing:0px;fill:#000000;fill-opacity:1;stroke:none"
       id="g1347">
      <path
         inkscape:connector-curvature="0"
         d="m 34.643158,224.14344 h 3.208333 l 0.875,-3.98958 h 1.96875 l -0.875,3.98958 h 3.697917 l 0.854167,-3.98958 h 1.96875 l -0.854167,3.98958 h 1.770834 v 1.97917 h -2.145834 l -0.65625,3.14583 h 2.802084 v 1.96875 h -3.177084 l -0.854166,3.95834 h -1.979167 l 0.864583,-3.95834 h -3.739583 l -0.8125,3.95834 h -1.989584 l 0.84375,-3.95834 h -1.770833 v -1.96875 h 2.177083 l 0.65625,-3.14583 h -2.833333 z m 4.802083,1.97917 -0.65625,3.13542 h 3.708334 l 0.645833,-3.13542 z"
         id="path1345" />
    </g>
  </g>
  <g
     id="g1357"
     transform="matrix(1.0664683,0,0,1.0664683,201.04116,33.410517)">
    <rect
       y="216.28635"
       x="29.368586"
       height="23.138885"
       width="23.138885"
       id="rect1351"
       style="fill:none;fill-opacity:1;stroke:#000000;stroke-width:4;stroke-miterlimit:4;stroke-dasharray:none;stroke-opacity:1" />
    <g
       id="g1355"
       style="font-style:normal;font-variant:normal;font-weight:normal;font-stretch:normal;font-size:21.33333397px;line-height:1.25;font-family:Impact;-inkscape-font-specification:Impact;letter-spacing:0px;word-spacing:0px;fill:#000000;fill-opacity:1;stroke:none"
       aria-label="#">
      <path
         id="path1353"
         d="m 34.643158,224.14344 h 3.208333 l 0.875,-3.98958 h 1.96875 l -0.875,3.98958 h 3.697917 l 0.854167,-3.98958 h 1.96875 l -0.854167,3.98958 h 1.770834 v 1.97917 h -2.145834 l -0.65625,3.14583 h 2.802084 v 1.96875 h -3.177084 l -0.854166,3.95834 h -1.979167 l 0.864583,-3.95834 h -3.739583 l -0.8125,3.95834 h -1.989584 l 0.84375,-3.95834 h -1.770833 v -1.96875 h 2.177083 l 0.65625,-3.14583 h -2.833333 z m 4.802083,1.97917 -0.65625,3.13542 h 3.708334 l 0.645833,-3.13542 z"
         inkscape:connector-curvature="0" />
    </g>
  </g>
  <g
     id="g1377">
    <rect
       y="264.26917"
       x="262.09698"
       height="24.676888"
       width="24.676888"
       id="rect1359"
       style="fill:#808080;fill-opacity:1;stroke:#000000;stroke-width:4.26587343;stroke-miterlimit:4;stroke-dasharray:none;stroke-opacity:1" />
    <text
       id="text1372"
       y="286.37289"
       x="263.49356"
       style="font-style:normal;font-variant:normal;font-weight:normal;font-stretch:normal;font-size:45.10679626px;line-height:1.25;font-family:'Gill Sans Nova';-inkscape-font-specification:'Gill Sans Nova';letter-spacing:0px;word-spacing:0px;fill:#000000;fill-opacity:1;stroke:none;stroke-width:2.11438107"
       xml:space="preserve"><tspan
         style="stroke-width:2.11438107"
         y="286.37289"
         x="263.49356"
         id="tspan1370"
         sodipodi:role="line">x</tspan></text>
  </g>
  <path
     style="fill:none;stroke:#000000;stroke-width:3;stroke-linecap:butt;stroke-linejoin:miter;stroke-opacity:1;stroke-miterlimit:4;stroke-dasharray:none"
     d="M 42.717943,280.36326 V 335.5406 L 14.239314,307.06197 Z"
     id="path1381"
     inkscape:connector-curvature="0" />
  <path
     inkscape:connector-curvature="0"
     id="path1383"
     d="m 297.016,333.98077 v -55.17735 l 28.47863,28.47864 z"
     style="fill:none;stroke:#000000;stroke-width:3;stroke-linecap:butt;stroke-linejoin:miter;stroke-miterlimit:4;stroke-dasharray:none;stroke-opacity:1" />
</svg>
